Coordinates
version=1
nRows=10
nColumns=33
inDegrees=yes

Units are S.I. units (second, meters, Newtons, ...)
Angles are in degrees.

endheader
time	ground_thorax_rot_x	ground_thorax_rot_y	ground_thorax_rot_z	ground_thorax_tx	ground_thorax_ty	ground_thorax_tz	clav_prot_r	clav_elev_r	scapula_abduction_r	scapula_elevation_r	scapula_upward_rot_r	scapula_winging_r	shoulder_elv_r	plane_of_elev_r	axial_rot_r	elbow_flexion_r	pro_sup_r	wrist_flex_r	wrist_dev_r	clav_prot_l	clav_elev_l	scapula_abduction_l	scapula_elevation_l	scapula_upward_rot_l	scapula_winging_l	shoulder_elv_l	plane_of_elev_l	axial_rot_l	elbow_flexion_l	pro_sup_l	wrist_flex_l	wrist_dev_l
      8.38000000	     38.88412938	      6.94713702	     12.99914456	   -165.17410759	    823.00971230	      7.11445557	     16.66605359	     40.65219112	     43.80770761	     45.00000000	    -35.86858938	  -1526.93474062	  -2448.57805578	     33.84017457	     25.72480758	   2172.54769384	     29.08967042	     19.25466194	      7.97391790	      9.27121001	    -45.00000000	    -43.98084802	     45.00000000	    -21.12135642	    816.40548772	  -2255.39478720	    137.50519511	    179.34440369	   -711.95667345	     23.08539282	     10.01765627	    -22.65803144
      8.39000000	     38.90134938	      7.10456431	     13.16412073	   -170.15224202	    824.95095908	      6.99124505	     16.57128614	     40.53490634	     43.64721335	     45.00000000	    -36.23083904	  -1527.25906250	  -2448.36447892	     33.83899988	     26.61668335	   2172.65171896	     30.39282221	     19.25631848	      7.57624999	      9.37065878	    -45.00000000	    -43.52682607	     45.00000000	    -22.40854536	    816.66359912	  -2254.99907037	    137.55450581	    178.85890002	   -711.83510216	     22.65921768	      9.88860326	    -22.74381315
      8.40000000	     38.91481890	      7.33088165	     13.36460281	   -175.10790194	    826.77885370	      6.87624694	     16.51782214	     40.33111502	     43.45449441	     45.00000000	    -36.82729047	  -1527.53785190	  -2448.15029349	     33.80307694	     27.34513719	   2172.78012737	     31.96729516	     19.22722763	      7.14185309	      9.50465492	    -45.00000000	    -43.08508961	     45.00000000	    -23.80960826	    816.92630080	  -2254.62611240	    137.55735135	    178.41703862	   -711.71069055	     22.33257912	      9.75833034	    -22.83671076
      8.41000000	     38.85093323	      7.84044055	     13.84432461	   -180.02128483	    828.48516154	      6.76909191	     16.58589656	     40.01101077	     42.90089508	     45.00000000	    -38.69342264	  -1527.27952809	  -2447.19945715	     33.98167387	     24.93550099	   2172.89517168	     34.89370768	     19.47621779	      7.05241782	      9.34120583	    -45.00000000	    -42.32579409	     45.00000000	    -26.28298497	    816.81886231	  -2253.98566363	    137.65118179	    177.56743501	   -711.59646240	     21.95328316	      9.15246083	    -22.90757159
      8.42000000	     38.87474970	      8.10998721	     13.99753261	   -184.87326807	    830.06127308	      6.66955458	     16.65924907	     39.91259021	     42.68254963	     45.00000000	    -38.97583769	  -1527.66642019	  -2447.14409531	     33.90769617	     26.24988643	   2173.27164309	     37.80622056	     19.22818888	      6.26226107	      9.51213817	    -45.00000000	    -42.22928803	     45.00000000	    -27.38548140	    817.26267799	  -2253.84368917	    137.70776172	    177.05397261	   -711.67622791	     21.89190836	      9.17610282	    -22.97582353
      8.43000000	     38.90876003	      8.09442346	     14.04373414	   -189.64978959	    831.50494283	      6.57735191	     16.44201920	     39.48485746	     42.70819824	     45.00000000	    -40.41251882	  -1527.70123167	  -2446.64854296	     34.04822889	     24.76112850	   2173.53641578	     42.73989586	     19.58078189	      6.21985166	      9.49760907	    -45.00000000	    -41.54946321	     45.00000000	    -28.78857086	    817.38846757	  -2253.41008919	    137.85486366	    176.29695259	   -711.40339645	     21.77401696	      8.58292516	    -22.90643712
      8.44000000	     38.90661858	      8.41900056	     14.26508363	   -194.33103795	    832.80942336	      6.49359906	     16.53436744	     39.50404719	     42.26899384	     45.00000000	    -40.67131155	  -1527.86085530	  -2446.48195632	     33.93816131	     26.06742112	   2174.09192921	     47.05562368	     19.19376636	      5.41032609	      9.54726779	    -45.00000000	    -41.28658309	     45.00000000	    -30.20964734	    817.72931953	  -2253.21081954	    137.91142191	    175.77128725	   -711.34524852	     22.03319979	      8.38619413	    -23.01119606
      8.45000000	     38.95582159	      8.50445506	     14.29214816	   -198.90764410	    833.97537577	      6.41971826	     16.42638057	     39.21968973	     42.15085815	     45.00000000	    -41.66339062	  -1527.95374025	  -2446.16928483	     34.01022553	     25.93801135	   2174.56700753	     52.59664394	     19.15260336	      5.03528480	      9.59279704	    -45.00000000	    -40.85620201	     45.00000000	    -31.65562488	    817.94337207	  -2252.92131318	    137.96718942	    175.19413811	   -711.23122368	     22.37975198	      7.93950123	    -22.97212093
      8.46000000	     38.96397177	      8.70298322	     14.43749651	   -203.36279794	    835.00057373	      6.35802888	     16.43803640	     39.06012355	     41.88472016	     45.00000000	    -42.42064463	  -1528.04796865	  -2445.98788720	     34.05231634	     26.49404972	   2175.21608044	     58.67722927	     18.82191065	      4.49344803	      9.66777984	    -45.00000000	    -40.52495060	     45.00000000	    -32.97998701	    818.22741358	  -2252.75492094	    138.06485769	    174.73138237	   -711.22129299	     22.84143001	      7.66997462	    -22.97210486
      8.47000000	     39.06865603	      8.58392476	     14.16475381	   -207.68239832	    835.88179927	      6.31091333	     16.00372199	     38.64976445	     41.99523722	     45.00000000	    -43.14183758	  -1528.44739973	  -2447.03591155	     33.85594008	     42.21468144	   2183.43174335	    137.60999972	     13.21984692	      2.87007953	      9.90131939	    -45.00000000	    -40.38028205	     45.00000000	    -33.08903573	    818.55005483	  -2252.79885784	    138.35188449	    173.99475792	   -711.21863331	     23.44445671	      7.49253163	    -23.16004569
